<mxfile host="app.diagrams.net" modified="2023-12-07T07:23:30.694Z" agent="Mozilla/5.0 (Windows NT 10.0; Win64; x64) AppleWebKit/537.36 (KHTML, like Gecko) Chrome/119.0.0.0 Safari/537.36 Edg/119.0.0.0" etag="lPXhdglA6Np_rNOHYEc6" version="22.1.7" type="github">
  <diagram name="Page-1" id="p_X9hYswsPsb-9zDx_El">
    <mxGraphModel dx="2505" dy="2053" grid="1" gridSize="10" guides="1" tooltips="1" connect="1" arrows="1" fold="1" page="1" pageScale="1" pageWidth="827" pageHeight="1169" math="0" shadow="0">
      <root>
        <mxCell id="0" />
        <mxCell id="1" parent="0" />
        <mxCell id="9KzNuktTNh-R-6sShlKV-22" value="" style="rounded=0;whiteSpace=wrap;html=1;" vertex="1" parent="1">
          <mxGeometry x="-50" y="-10" width="900" height="830" as="geometry" />
        </mxCell>
        <mxCell id="9KzNuktTNh-R-6sShlKV-1" value="" style="rounded=1;whiteSpace=wrap;html=1;" vertex="1" parent="1">
          <mxGeometry x="30" y="40" width="300" height="290" as="geometry" />
        </mxCell>
        <mxCell id="9KzNuktTNh-R-6sShlKV-2" value="" style="rounded=1;whiteSpace=wrap;html=1;" vertex="1" parent="1">
          <mxGeometry x="470" y="40" width="330" height="290" as="geometry" />
        </mxCell>
        <mxCell id="9KzNuktTNh-R-6sShlKV-3" value="Second.DLL" style="text;html=1;strokeColor=none;fillColor=none;align=center;verticalAlign=middle;whiteSpace=wrap;rounded=0;" vertex="1" parent="1">
          <mxGeometry x="140" y="340" width="60" height="30" as="geometry" />
        </mxCell>
        <mxCell id="9KzNuktTNh-R-6sShlKV-4" value="Hyundi.DLL" style="text;html=1;strokeColor=none;fillColor=none;align=center;verticalAlign=middle;whiteSpace=wrap;rounded=0;" vertex="1" parent="1">
          <mxGeometry x="620" y="340" width="60" height="30" as="geometry" />
        </mxCell>
        <mxCell id="9KzNuktTNh-R-6sShlKV-14" style="edgeStyle=orthogonalEdgeStyle;rounded=0;orthogonalLoop=1;jettySize=auto;html=1;" edge="1" parent="1" source="9KzNuktTNh-R-6sShlKV-6" target="9KzNuktTNh-R-6sShlKV-13">
          <mxGeometry relative="1" as="geometry" />
        </mxCell>
        <mxCell id="9KzNuktTNh-R-6sShlKV-6" value="Driver" style="rounded=0;whiteSpace=wrap;html=1;" vertex="1" parent="1">
          <mxGeometry x="40" y="130" width="120" height="30" as="geometry" />
        </mxCell>
        <mxCell id="9KzNuktTNh-R-6sShlKV-16" style="edgeStyle=orthogonalEdgeStyle;rounded=0;orthogonalLoop=1;jettySize=auto;html=1;endArrow=block;endFill=0;" edge="1" parent="1" source="9KzNuktTNh-R-6sShlKV-7" target="9KzNuktTNh-R-6sShlKV-13">
          <mxGeometry relative="1" as="geometry" />
        </mxCell>
        <mxCell id="9KzNuktTNh-R-6sShlKV-7" value="i20Car" style="rounded=0;whiteSpace=wrap;html=1;" vertex="1" parent="1">
          <mxGeometry x="575" y="130" width="120" height="30" as="geometry" />
        </mxCell>
        <mxCell id="9KzNuktTNh-R-6sShlKV-9" value="" style="rounded=1;whiteSpace=wrap;html=1;" vertex="1" parent="1">
          <mxGeometry x="40" y="480" width="280" height="250" as="geometry" />
        </mxCell>
        <mxCell id="9KzNuktTNh-R-6sShlKV-10" value="Tata.DLL" style="text;html=1;strokeColor=none;fillColor=none;align=center;verticalAlign=middle;whiteSpace=wrap;rounded=0;" vertex="1" parent="1">
          <mxGeometry x="140" y="740" width="60" height="30" as="geometry" />
        </mxCell>
        <mxCell id="9KzNuktTNh-R-6sShlKV-17" style="edgeStyle=orthogonalEdgeStyle;rounded=0;orthogonalLoop=1;jettySize=auto;html=1;endArrow=block;endFill=0;" edge="1" parent="1" source="9KzNuktTNh-R-6sShlKV-11" target="9KzNuktTNh-R-6sShlKV-13">
          <mxGeometry relative="1" as="geometry">
            <Array as="points">
              <mxPoint x="240" y="335" />
              <mxPoint x="250" y="335" />
            </Array>
          </mxGeometry>
        </mxCell>
        <mxCell id="9KzNuktTNh-R-6sShlKV-11" value="Altroz" style="rounded=0;whiteSpace=wrap;html=1;" vertex="1" parent="1">
          <mxGeometry x="170" y="520" width="140" height="30" as="geometry" />
        </mxCell>
        <mxCell id="9KzNuktTNh-R-6sShlKV-13" value="ICar" style="rounded=0;whiteSpace=wrap;html=1;" vertex="1" parent="1">
          <mxGeometry x="190" y="130" width="120" height="30" as="geometry" />
        </mxCell>
        <mxCell id="9KzNuktTNh-R-6sShlKV-18" value="" style="rounded=1;whiteSpace=wrap;html=1;" vertex="1" parent="1">
          <mxGeometry x="490" y="480" width="290" height="240" as="geometry" />
        </mxCell>
        <mxCell id="9KzNuktTNh-R-6sShlKV-19" value="Suzuki" style="text;html=1;strokeColor=none;fillColor=none;align=center;verticalAlign=middle;whiteSpace=wrap;rounded=0;" vertex="1" parent="1">
          <mxGeometry x="600" y="720" width="60" height="30" as="geometry" />
        </mxCell>
        <mxCell id="9KzNuktTNh-R-6sShlKV-20" value="Baleno" style="rounded=0;whiteSpace=wrap;html=1;" vertex="1" parent="1">
          <mxGeometry x="580" y="505" width="120" height="25" as="geometry" />
        </mxCell>
        <mxCell id="9KzNuktTNh-R-6sShlKV-21" style="edgeStyle=orthogonalEdgeStyle;rounded=0;orthogonalLoop=1;jettySize=auto;html=1;entryX=0.875;entryY=1.1;entryDx=0;entryDy=0;entryPerimeter=0;endArrow=block;endFill=0;" edge="1" parent="1" source="9KzNuktTNh-R-6sShlKV-20" target="9KzNuktTNh-R-6sShlKV-13">
          <mxGeometry relative="1" as="geometry">
            <Array as="points">
              <mxPoint x="640" y="390" />
              <mxPoint x="295" y="390" />
            </Array>
          </mxGeometry>
        </mxCell>
      </root>
    </mxGraphModel>
  </diagram>
</mxfile>
